# xmcd
#
# Track frame offsets: 
#        150
#        13382
#        31502
#        50887
#        66880
#        84915
#        102860
#        119247
#        134392
#        149507
#        168337
#        193042
#        205360
#
# Disc length: 2844 seconds
#
# Revision: 4
# Processed by: cddbd v1.5.2PL0 Copyright (c) Steve Scherf et al.
# Submitted via: ExactAudioCopy v1.0b3
#
DISCID=c20b1a0d
DTITLE=Bob Walsh - Christmas
DYEAR=2003
DGENRE=Blues
TTITLE0=Bob Walsh - Blue Christmas
TTITLE1=Bob Walsh - The Christmas Song
TTITLE2=Bob Walsh - Christmas Comes But Once A Year
TTITLE3=Bob Walsh - Have Yourself A Merry Little Christmas
TTITLE4=Bob Walsh - The First Noel
TTITLE5=Bob Walsh - White Christmas
TTITLE6=Bob Walsh - Joy To The World
TTITLE7=Bob Walsh - Sleigh Ride
TTITLE8=Bob Walsh - Santa Claus Is Coming To Town
TTITLE9=Bob Walsh - Silent Night
TTITLE10=Bob Walsh - Amazong Grace
TTITLE11=Bob Walsh - Ave Maria
TTITLE12=Bob Walsh - We Wish You A Merry Christmas
EXTD=Bluesman Québécois\nBluesman from Québec
EXTT0=
EXTT1=
EXTT2=
EXTT3=
EXTT4=
EXTT5=
EXTT6=
EXTT7=
EXTT8=
EXTT9=
EXTT10=
EXTT11=
EXTT12=
PLAYORDER=
